<?xml version="1.0" standalone="no"?>
<!DOCTYPE svg PUBLIC "-//W3C//DTD SVG 20010904//EN"
 "http://www.w3.org/TR/2001/REC-SVG-20010904/DTD/svg10.dtd">
<svg version="1.0" xmlns="http://www.w3.org/2000/svg"
 width="512.000000pt" height="512.000000pt" viewBox="0 0 512.000000 512.000000"
 preserveAspectRatio="xMidYMid meet">
<metadata>
Created by potrace 1.15, written by Peter Selinger 2001-2017
</metadata>
<g transform="translate(0.000000,512.000000) scale(0.100000,-0.100000)"
fill="#000000" stroke="none">
<path d="M203 4958 c-174 -172 -196 -198 -191 -231 3 -19 32 5 192 163 103
102 192 193 197 203 8 14 5 17 -17 17 -21 0 -60 -33 -181 -152z"/>
<path d="M303 4858 c-140 -139 -264 -265 -275 -281 -10 -15 -18 -37 -16 -50 3
-18 49 23 292 263 158 157 292 293 297 303 8 14 5 17 -17 17 -22 0 -75 -47
-281 -252z"/>
<path d="M402 4758 c-194 -194 -362 -365 -373 -381 -11 -15 -19 -37 -17 -50 4
-18 67 40 392 363 213 212 392 393 397 403 8 14 5 17 -18 17 -22 0 -89 -62
-381 -352z"/>
<path d="M502 4658 c-249 -249 -462 -465 -473 -481 -11 -15 -19 -37 -17 -50 4
-18 84 57 492 463 268 267 492 493 497 503 8 14 5 17 -18 17 -22 0 -104 -76
-481 -452z"/>
<path d="M602 4558 c-304 -304 -562 -565 -573 -581 -11 -15 -19 -37 -17 -50 4
-18 101 75 592 563 323 322 592 593 597 603 8 14 5 17 -18 17 -23 0 -118 -91
-581 -552z"/>
<path d="M702 4458 c-359 -359 -662 -665 -673 -681 -11 -15 -19 -37 -17 -50 4
-18 118 92 692 663 378 377 692 693 697 703 8 14 5 17 -18 17 -23 0 -133 -106
-681 -652z"/>
<path d="M802 4358 c-414 -414 -762 -765 -773 -781 -11 -15 -19 -37 -17 -50 4
-18 136 109 792 763 433 432 792 793 797 803 8 14 5 17 -18 17 -23 0 -148
-120 -781 -752z"/>
<path d="M902 4258 c-469 -469 -862 -865 -873 -881 -11 -15 -19 -37 -17 -50 4
-18 153 126 892 863 488 487 892 893 897 903 8 14 5 17 -18 17 -23 0 -162
-135 -881 -852z"/>
<path d="M1002 4158 c-524 -524 -962 -965 -973 -981 -11 -15 -19 -37 -17 -50
4 -18 170 144 992 963 543 542 992 993 997 1003 8 14 5 17 -18 17 -23 0 -177
-149 -981 -952z"/>
<path d="M1102 4058 c-579 -579 -1062 -1065 -1073 -1081 -11 -15 -19 -37 -17
-50 4 -18 188 161 1092 1063 598 597 1092 1093 1097 1103 8 14 5 17 -18 17
-23 0 -191 -164 -1081 -1052z"/>
<path d="M1202 3958 c-634 -634 -1162 -1165 -1173 -1181 -11 -15 -19 -37 -17
-50 4 -18 205 178 1192 1163 653 652 1192 1193 1197 1203 8 14 5 17 -18 17
-23 0 -206 -178 -1181 -1152z"/>
<path d="M1302 3858 c-689 -689 -1262 -1265 -1273 -1281 -11 -15 -19 -37 -17
-50 4 -18 222 195 1292 1263 708 707 1292 1293 1297 1303 8 14 5 17 -18 17
-23 0 -220 -193 -1281 -1252z"/>
<path d="M2235 4592 c-434 -433 -532 -526 -591 -560 -160 -93 -352 -258 -474
-407 -63 -78 -148 -201 -175 -255 -9 -19 -235 -253 -501 -521 -399 -400 -484
-490 -484 -512 0 -15 3 -27 7 -27 4 0 204 197 445 437 l438 438 -36 -100 -35
-100 -410 -411 c-336 -337 -409 -415 -409 -437 0 -15 3 -27 7 -27 4 0 182 174
396 387 347 346 389 384 383 353 -4 -19 -9 -53 -12 -75 -6 -37 -38 -72 -390
-426 -315 -316 -384 -390 -384 -412 0 -15 3 -27 7 -27 4 0 174 166 378 370
l370 370 -3 -68 -3 -67 -375 -376 c-307 -307 -374 -380 -374 -402 0 -15 3 -27
7 -27 4 0 173 165 375 367 l368 368 0 -65 0 -64 -375 -376 c-308 -309 -375
-381 -375 -403 0 -15 3 -27 7 -27 4 0 175 167 379 371 l372 372 9 -54 10 -54
-389 -391 c-318 -320 -388 -395 -388 -417 0 -15 3 -27 7 -27 4 0 181 174 394
386 l387 386 11 -53 12 -53 -406 -406 c-333 -334 -405 -411 -405 -433 0 -15 3
-27 7 -27 4 0 190 183 414 406 l406 406 17 -48 16 -48 -430 -431 c-354 -355
-430 -436 -430 -458 0 -15 3 -27 7 -27 4 0 202 194 440 432 238 238 434 430
435 428 2 -3 12 -23 21 -44 l18 -39 -460 -462 c-384 -383 -461 -466 -461 -488
0 -23 3 -26 18 -18 9 5 222 215 472 465 l455 456 22 -43 22 -42 -495 -495
c-408 -410 -494 -501 -494 -523 0 -15 3 -27 7 -27 4 0 233 225 509 501 l500
500 26 -38 26 -38 -534 -535 c-442 -444 -534 -540 -534 -563 0 -15 3 -27 7
-27 4 0 251 243 549 541 l541 540 28 -36 28 -37 -577 -577 c-478 -479 -576
-581 -576 -604 0 -15 3 -27 7 -27 4 0 271 264 594 586 l586 585 28 -36 28 -37
-597 -597 c-328 -328 -596 -600 -596 -604 0 -4 12 -7 27 -7 23 0 127 100 615
587 l588 588 32 -33 33 -32 -548 -548 c-301 -301 -547 -551 -547 -555 0 -4 12
-7 27 -7 23 0 120 92 568 540 l540 539 35 -29 35 -29 -503 -503 c-276 -277
-502 -507 -502 -511 0 -4 12 -7 27 -7 22 0 113 86 524 496 l497 497 37 -28 36
-28 -460 -461 c-254 -254 -461 -465 -461 -469 0 -4 12 -7 27 -7 22 0 107 80
483 455 l456 456 42 -24 41 -23 -415 -415 c-228 -227 -420 -422 -425 -431 -8
-15 -5 -18 18 -18 22 0 99 72 447 419 l421 419 44 -19 45 -20 -392 -392 c-216
-216 -392 -396 -392 -400 0 -4 12 -7 27 -7 22 0 97 70 417 389 l391 388 40
-15 c22 -9 42 -17 44 -19 3 -2 -158 -167 -357 -366 -199 -200 -362 -366 -362
-370 0 -4 12 -7 27 -7 22 0 92 65 389 361 l362 361 52 -12 52 -13 -341 -341
c-188 -188 -341 -345 -341 -349 0 -4 12 -7 27 -7 22 0 89 62 368 341 l342 340
51 -7 c29 -3 52 -9 52 -13 0 -3 -140 -146 -311 -316 -170 -171 -315 -318 -320
-327 -8 -15 -5 -18 18 -18 22 0 85 58 353 325 l326 325 64 0 65 0 -318 -318
c-174 -175 -317 -321 -317 -325 0 -4 12 -7 27 -7 22 0 86 59 347 319 l321 319
70 6 69 6 -317 -318 c-174 -175 -317 -321 -317 -325 0 -4 12 -7 27 -7 22 0 87
60 353 325 l326 325 60 10 c32 6 66 10 74 10 8 0 -133 -148 -313 -328 -180
-180 -327 -331 -327 -335 0 -4 12 -7 27 -7 22 0 91 64 378 350 193 193 356
350 362 350 7 0 47 11 89 25 l78 24 -367 -367 c-202 -202 -367 -371 -367 -375
0 -4 12 -7 27 -7 22 0 100 73 433 405 223 223 413 405 421 405 8 0 67 29 130
65 l114 65 -462 -463 c-255 -254 -463 -466 -463 -470 0 -4 12 -7 27 -7 23 0
218 190 1211 1182 651 651 1192 1195 1203 1211 11 15 19 37 17 50 -4 18 -86
-60 -508 -478 -277 -275 -493 -484 -481 -465 12 19 45 80 72 135 l51 100 434
435 c357 359 434 441 434 463 0 15 -3 27 -7 27 -4 0 -188 -181 -409 -401
l-402 -402 27 92 27 92 382 382 c313 314 382 388 382 410 0 15 -3 27 -7 27 -4
0 -172 -164 -373 -365 l-366 -365 11 75 10 74 363 364 c296 297 362 368 362
390 0 15 -3 27 -7 27 -4 0 -166 -159 -360 -352 l-353 -353 0 65 0 64 360 361
c295 296 360 366 360 388 0 15 -3 27 -7 27 -4 0 -166 -158 -359 -351 l-351
-351 -6 59 -5 58 364 366 c298 299 364 370 364 392 0 15 -3 27 -7 27 -4 0
-170 -163 -369 -361 l-362 -362 -7 58 -8 57 377 377 c308 309 376 382 376 404
0 15 -3 27 -7 27 -4 0 -177 -169 -384 -376 l-377 -377 -15 49 -14 49 399 401
c329 331 398 405 398 427 0 23 -3 26 -17 18 -10 -5 -193 -185 -408 -400 l-389
-390 -18 47 -18 47 425 425 c350 351 425 431 425 453 0 15 -3 27 -7 27 -4 0
-200 -192 -434 -426 l-427 -427 -22 43 -22 43 456 456 c376 377 456 462 456
484 0 15 -3 27 -7 27 -4 0 -215 -207 -468 -460 l-461 -461 -23 42 -23 41 491
492 c406 407 491 497 491 519 0 15 -3 27 -7 27 -4 0 -231 -224 -505 -497 -475
-475 -498 -496 -513 -478 -44 57 -78 17 494 589 443 444 531 536 531 559 0 23
-3 26 -17 18 -10 -5 -256 -248 -547 -539 l-529 -530 -30 35 -30 34 576 578
c483 482 577 581 577 604 0 23 -3 26 -17 18 -10 -5 -277 -269 -593 -585 l-574
-576 -33 32 -33 32 625 626 c520 520 625 630 625 653 0 15 -3 27 -7 27 -4 0
-294 -286 -643 -635 l-636 -635 -32 33 -32 32 611 610 c336 336 615 618 620
628 8 14 5 17 -18 17 -23 0 -127 -99 -639 -611 -657 -656 -619 -624 -666 -572
-17 18 5 41 548 583 311 311 570 573 575 583 8 14 5 17 -18 17 -23 0 -121 -93
-598 -570 l-570 -570 -39 26 -38 26 536 537 c295 295 536 540 536 544 0 4 -12
7 -27 7 -23 0 -118 -91 -559 -531 l-532 -531 -41 23 -42 23 501 501 c275 275
500 504 500 508 0 4 -12 7 -27 7 -22 0 -113 -86 -524 -496 l-497 -497 -46 19
-46 19 470 470 c259 259 470 474 470 478 0 4 -12 7 -27 7 -22 0 -108 -81 -494
-466 l-467 -466 -38 12 c-22 7 -43 15 -48 18 -4 2 190 203 433 446 243 243
441 445 441 449 0 4 -12 7 -27 7 -22 0 -104 -77 -468 -440 -242 -242 -447
-440 -455 -440 -8 0 -33 5 -54 11 l-39 11 422 422 c231 232 421 425 421 429 0
4 -12 7 -27 7 -22 0 -102 -75 -453 -424 -399 -399 -427 -424 -455 -420 -86 14
-111 -17 328 422 224 224 407 411 407 415 0 4 -12 7 -27 7 -22 0 -100 -73
-438 -410 l-411 -410 -64 0 -65 0 403 403 c221 221 402 406 402 410 0 4 -12 7
-27 7 -22 0 -100 -73 -437 -409 l-411 -409 -70 -6 -69 -6 407 408 c224 224
407 411 407 415 0 4 -12 7 -27 7 -22 0 -102 -74 -447 -419 l-421 -418 -79 -15
-78 -16 426 427 c234 235 426 430 426 434 0 4 -12 7 -27 7 -22 0 -105 -78
-473 -446 l-447 -445 -79 -28 c-43 -16 -88 -32 -99 -36 -11 -4 193 206 453
466 259 261 472 478 472 482 0 4 -12 7 -27 7 -23 0 -117 -89 -548 -518z m-485
-1287 c-717 -717 -795 -793 -798 -768 -2 15 -1 45 2 68 6 38 52 86 729 762
778 778 720 727 827 731 33 2 -10 -43 -760 -793z m950 789 c32 -7 27 -12 -851
-890 -485 -486 -886 -881 -891 -878 -4 3 -8 29 -8 57 l0 52 832 832 c886 886
838 843 918 827z m-1050 -689 c-371 -371 -676 -673 -677 -671 -2 2 4 37 13 78
l17 76 577 577 577 577 74 18 c41 10 78 19 84 19 5 1 -294 -303 -665 -674z
m1233 666 c26 -6 -26 -59 -937 -970 l-964 -964 -9 54 -10 54 916 918 c990 991
920 928 1004 908z m133 -32 c24 -6 44 -14 44 -18 0 -3 -458 -464 -1018 -1024
l-1018 -1018 -12 39 c-7 22 -12 46 -12 53 0 11 1957 1979 1968 1979 2 0 23 -5
48 -11z m-1466 -534 c-277 -277 -505 -503 -507 -501 -4 3 42 117 69 171 23 46
695 727 743 752 31 17 186 82 195 83 3 0 -222 -227 -500 -505z m1627 480 l37
-16 -289 -290 c-272 -272 -292 -290 -320 -285 -16 3 -48 1 -69 -4 -37 -8 -17
14 270 301 170 170 315 309 322 309 7 0 29 -7 49 -15z m-128 -381 l-302 -302
-30 35 -30 34 288 289 288 288 44 -21 44 -21 -302 -302z m411 237 c12 -9 -205
-231 -1110 -1136 -619 -619 -1128 -1125 -1132 -1125 -3 0 -16 16 -29 36 l-22
36 689 689 689 689 43 0 c94 0 163 64 170 159 l4 56 316 317 c313 314 316 317
341 303 14 -8 33 -19 41 -24z m96 -68 l35 -26 -478 -479 -478 -478 -65 0 -65
0 505 505 c278 278 506 505 508 505 2 0 19 -12 38 -27z m111 -91 l32 -28 -494
-494 -495 -495 0 65 0 65 457 457 c252 252 460 458 463 458 3 -1 19 -13 37
-28z m123 -130 c0 -4 -243 -250 -540 -547 l-540 -540 0 65 0 65 513 513 512
513 28 -31 c15 -17 27 -34 27 -38z m68 -72 c12 -16 22 -33 22 -37 0 -4 -263
-271 -585 -593 l-585 -585 0 65 0 65 557 557 c307 307 560 558 564 558 3 0 15
-13 27 -30z m85 -118 l25 -39 -629 -629 -629 -629 0 65 0 65 602 602 c332 332
603 603 604 603 1 0 13 -17 27 -38z m-1541 -139 l-4 -68 -656 -657 c-361 -362
-659 -658 -662 -658 -3 0 -13 19 -22 43 l-16 42 681 683 c375 375 682 682 682
682 1 0 -1 -30 -3 -67z m975 -691 l-662 -662 -3 62 -3 62 643 643 643 643 22
-43 22 -42 -662 -663z m708 566 l16 -42 -693 -693 -693 -693 -3 62 -3 62 673
673 c370 370 676 673 679 673 4 0 14 -19 24 -42z m-1617 -37 c22 -16 13 -25
-652 -690 l-674 -674 -22 43 -22 43 663 663 c554 554 665 660 674 647 6 -8 21
-23 33 -32z m1672 -115 l12 -39 -1005 -1005 -1005 -1005 -46 13 c-25 7 -46 15
-46 19 0 3 136 142 302 308 251 251 308 303 330 303 24 0 28 4 28 27 0 24 113
141 702 730 386 386 705 699 709 695 4 -4 12 -24 19 -46z m-894 -1145 l-944
-944 -52 13 -52 13 983 983 984 984 12 -52 12 -53 -943 -944z m-1369 231
l-574 -574 -28 37 -28 36 599 600 599 599 3 -62 3 -62 -574 -574z m1472 -328
c-919 -919 -869 -874 -949 -858 -32 7 -27 12 881 921 l914 913 9 -56 9 -56
-864 -864z m-1426 174 l-527 -527 -28 26 c-15 15 -28 32 -28 37 0 6 249 260
553 564 l552 552 3 -62 3 -62 -528 -528z m1525 -275 l-763 -763 -65 0 -65 0
825 825 825 825 3 -62 3 -62 -763 -763z m-1475 125 l-477 -478 -34 32 -33 32
508 508 508 508 3 -62 3 -62 -478 -478z m2217 475 l-11 -69 -632 -632 -632
-632 -54 -10 c-29 -5 -63 -10 -75 -10 -15 0 186 206 694 715 393 393 716 712
718 710 2 -2 -1 -35 -8 -72z m-2162 -620 l-423 -423 -35 29 -35 30 455 456
455 455 3 -62 3 -62 -423 -423z m2096 356 l-27 -84 -446 -447 -445 -448 -84
-30 c-46 -16 -88 -30 -95 -30 -7 0 242 254 553 565 310 310 566 563 568 561 1
-2 -9 -41 -24 -87z m-2036 -496 l-363 -363 -39 26 -38 26 398 399 399 399 3
-62 3 -62 -363 -363z m64 -136 l-299 -299 -43 22 -43 22 339 339 339 339 3
-62 3 -62 -299 -299z m1837 341 c-144 -244 -358 -456 -604 -598 -25 -14 85
103 295 314 184 185 336 336 337 336 1 0 -11 -24 -28 -52z m-1700 -404 l-297
-297 -47 18 -47 18 279 279 278 278 65 0 65 0 -296 -296z"/>
<path d="M3996 1150 c-614 -613 -1122 -1123 -1127 -1132 -8 -15 -5 -18 18 -18
23 0 196 168 1111 1082 596 596 1092 1095 1103 1111 11 15 19 37 17 50 -4 18
-193 -166 -1122 -1093z"/>
<path d="M4096 1050 c-559 -558 -1022 -1023 -1027 -1033 -8 -14 -5 -17 18 -17
23 0 181 153 1011 983 541 540 992 994 1003 1010 11 15 19 37 17 50 -4 18
-175 -149 -1022 -993z"/>
<path d="M4196 950 c-504 -503 -922 -923 -927 -932 -8 -15 -5 -18 18 -18 23 0
167 139 911 882 486 486 892 895 903 911 11 15 19 37 17 50 -4 18 -158 -132
-922 -893z"/>
<path d="M4296 850 c-449 -448 -822 -823 -827 -832 -8 -15 -5 -18 18 -18 23 0
152 124 811 783 431 430 792 794 803 810 11 15 19 37 17 50 -4 18 -141 -114
-822 -793z"/>
<path d="M4396 750 c-394 -393 -722 -723 -727 -732 -8 -15 -5 -18 18 -18 23 0
137 110 711 683 376 375 692 694 703 710 11 15 19 37 17 50 -4 18 -124 -97
-722 -693z"/>
<path d="M4496 650 c-339 -338 -622 -623 -627 -632 -8 -15 -5 -18 18 -18 23 0
123 95 611 583 321 320 592 594 603 610 11 15 19 37 17 50 -4 18 -106 -80
-622 -593z"/>
<path d="M4596 550 c-284 -283 -522 -523 -527 -533 -8 -14 -5 -17 18 -17 23 0
108 81 511 483 266 265 492 494 503 510 11 15 19 37 17 50 -4 18 -89 -62 -522
-493z"/>
<path d="M4696 450 c-229 -228 -422 -423 -427 -432 -8 -15 -5 -18 18 -18 22 0
93 66 411 383 211 210 392 394 403 410 11 15 19 37 17 50 -4 18 -72 -45 -422
-393z"/>
<path d="M4796 350 c-174 -173 -322 -323 -327 -332 -8 -15 -5 -18 17 -18 23 0
80 52 312 282 156 156 293 295 303 311 11 15 19 37 17 50 -4 18 -54 -28 -322
-293z"/>
<path d="M4896 250 c-119 -118 -222 -223 -227 -232 -8 -15 -5 -18 17 -18 21 0
65 37 211 183 205 202 226 227 221 260 -3 19 -37 -11 -222 -193z"/>
<path d="M4996 150 c-136 -133 -149 -150 -111 -150 18 0 49 23 111 82 102 98
127 130 122 161 -3 19 -19 7 -122 -93z"/>
</g>
</svg>
