<?xml version="1.0" standalone="no"?>
<!DOCTYPE svg PUBLIC "-//W3C//DTD SVG 20010904//EN"
 "http://www.w3.org/TR/2001/REC-SVG-20010904/DTD/svg10.dtd">
<svg version="1.0" xmlns="http://www.w3.org/2000/svg"
 width="106.000000pt" height="90.000000pt" viewBox="0 0 106.000000 90.000000"
 preserveAspectRatio="xMidYMid meet">
<metadata>
Created by potrace 1.15, written by Peter Selinger 2001-2017
</metadata>
<g transform="translate(0.000000,90.000000) scale(0.100000,-0.100000)"
fill="#000000" stroke="none">
<path d="M320 894 c-161 -63 -275 -187 -309 -335 -13 -56 -13 -162 0 -218 28
-121 133 -253 244 -307 55 -27 69 -29 170 -29 102 0 114 2 169 30 151 77 256
253 256 431 0 59 -8 74 -39 74 -46 0 -52 -11 -54 -101 -2 -71 -7 -94 -34 -149
-64 -134 -175 -202 -316 -196 -201 10 -345 198 -316 411 34 252 315 386 517
245 23 -17 47 -30 52 -30 5 0 18 14 31 31 l21 31 -33 28 c-19 16 -59 41 -89
57 -47 24 -67 28 -155 30 -55 1 -107 0 -115 -3z"/>
<path d="M940 882 c-8 -3 -17 -8 -20 -12 -3 -4 -34 -23 -70 -42 -52 -28 -71
-46 -95 -87 -29 -48 -46 -64 -140 -123 -109 -69 -135 -80 -164 -70 -62 22
-130 -44 -117 -113 19 -99 144 -106 176 -9 9 27 25 42 67 67 30 18 71 42 91
54 69 42 101 53 153 53 45 0 64 7 140 53 49 28 88 56 86 62 -2 5 -23 15 -48
22 -73 21 -70 17 -53 73 17 59 16 79 -6 72z"/>
<path d="M368 718 c-89 -19 -167 -103 -194 -207 -14 -55 -14 -67 0 -122 36
-139 143 -222 274 -212 116 8 218 117 229 245 l6 61 -43 -24 c-34 -18 -46 -32
-53 -59 -19 -77 -86 -130 -162 -130 -163 0 -233 216 -105 323 36 31 83 42 143
33 34 -4 50 -1 80 18 l38 24 -28 19 c-48 35 -117 46 -185 31z"/>
</g>
</svg>
