<?xml version="1.0" standalone="no"?>
<!DOCTYPE svg PUBLIC "-//W3C//DTD SVG 20010904//EN"
 "http://www.w3.org/TR/2001/REC-SVG-20010904/DTD/svg10.dtd">
<svg version="1.0" xmlns="http://www.w3.org/2000/svg"
 width="1000.000000pt" height="1000.000000pt" viewBox="0 0 1000.000000 1000.000000"
 preserveAspectRatio="xMidYMid meet">
<metadata>
Created by potrace 1.15, written by Peter Selinger 2001-2017
</metadata>
<g transform="translate(0.000000,1000.000000) scale(0.100000,-0.100000)"
fill="#000000" stroke="none">
<path d="M2740 8231 c-52 -16 -96 -45 -137 -88 -80 -86 -73 226 -73 -3223 0
-3449 -7 -3137 73 -3223 23 -25 62 -55 87 -68 l45 -24 2270 0 2270 0 57 33
c31 18 70 48 86 66 63 72 61 46 64 984 2 468 0 852 -4 852 -5 0 -8 -9 -8 -20
0 -11 -4 -28 -10 -38 -10 -19 -60 -158 -114 -322 -100 -301 -117 -345 -148
-371 -17 -15 -18 -41 -18 -448 l0 -431 -2171 -2 c-1194 -2 -2173 -1 -2175 1
-2 2 -4 1358 -4 3013 l0 3008 2175 0 2175 0 1 -1507 0 -1508 28 80 c16 44 49
141 74 215 25 74 69 200 97 280 28 80 62 178 75 218 l25 72 0 1115 c0 1098 0
1115 -20 1169 -24 62 -71 110 -145 147 l-50 24 -2250 2 c-1237 1 -2261 -2
-2275 -6z"/>
<path d="M4185 7288 c-50 -29 -54 -45 -54 -188 0 -158 6 -173 86 -190 31 -7
317 -10 829 -8 l781 3 26 30 c26 29 26 33 26 165 0 128 -1 136 -24 165 l-25
30 -812 2 c-603 2 -818 0 -833 -9z"/>
<path d="M7965 6642 c-45 -31 -61 -67 -180 -417 -36 -104 -92 -269 -126 -365
-33 -96 -73 -213 -89 -260 -29 -85 -161 -467 -226 -652 -61 -175 -54 -187 171
-264 167 -57 217 -63 250 -31 14 14 70 165 145 387 15 47 65 191 110 320 45
129 95 273 111 320 75 225 169 484 178 493 6 6 20 -7 40 -39 26 -40 31 -58 31
-108 0 -54 -7 -74 -69 -201 -78 -157 -132 -278 -166 -375 -132 -366 -147 -415
-147 -480 0 -111 45 -175 103 -146 26 13 28 34 14 126 -6 39 1 68 53 220 106
313 126 363 234 581 89 180 110 261 89 346 -16 65 -51 122 -102 168 l-43 38
22 61 c27 76 27 98 1 153 -29 60 -54 76 -177 117 -130 44 -173 45 -227 8z"/>
<path d="M3308 6412 c-27 -16 -28 -20 -28 -103 0 -71 3 -89 18 -102 17 -16
150 -17 1710 -17 1524 0 1692 2 1706 16 12 12 16 37 16 104 0 82 -2 89 -25
104 -22 15 -171 16 -1697 16 -1556 -1 -1675 -2 -1700 -18z"/>
<path d="M3340 5823 c-50 -9 -60 -29 -60 -119 0 -58 4 -87 14 -97 32 -31 3390
-31 3422 0 15 15 20 168 6 189 -22 34 -33 34 -1704 33 -909 -1 -1664 -4 -1678
-6z"/>
<path d="M3769 5223 c-538 -4 -495 7 -492 -125 2 -64 6 -83 20 -94 15 -11 308
-13 1710 -14 1525 0 1693 2 1707 16 24 24 23 175 -2 197 -16 15 -133 17 -1252
20 -679 2 -1440 2 -1691 0z"/>
<path d="M7328 4663 c-18 -4 -31 -35 -93 -218 -60 -179 -116 -339 -125 -360
-5 -11 -29 -81 -54 -155 -25 -74 -71 -207 -102 -295 -31 -88 -69 -198 -84
-245 -16 -47 -51 -149 -79 -228 -27 -79 -48 -149 -45 -155 3 -7 53 -27 112
-46 59 -19 134 -45 166 -59 73 -29 72 -29 116 98 18 52 52 151 76 220 41 120
165 477 198 570 9 25 39 113 66 195 28 83 54 157 57 165 50 136 123 361 123
382 0 30 -15 41 -83 63 -23 7 -82 27 -130 44 -49 17 -92 30 -95 30 -4 -1 -15
-3 -24 -6z"/>
<path d="M3334 4618 c-49 -13 -54 -24 -54 -119 0 -81 2 -89 23 -101 18 -10
353 -14 1687 -16 916 -1 1675 0 1687 3 43 10 53 31 53 116 0 89 -17 119 -67
119 -274 5 -3311 3 -3329 -2z"/>
<path d="M3302 4004 c-20 -14 -22 -24 -22 -104 0 -80 2 -90 22 -104 20 -14
169 -16 1401 -16 l1378 0 24 25 c22 21 25 33 25 99 0 69 -2 76 -26 95 l-27 21
-1376 0 c-1230 0 -1379 -2 -1399 -16z"/>
<path d="M5255 3445 c-124 -55 -443 -498 -538 -750 -33 -85 -36 -170 -8 -230
34 -75 91 -104 208 -105 60 0 74 3 82 18 18 33 -2 45 -73 43 -72 -2 -120 14
-151 49 -47 52 -13 208 82 380 126 228 384 546 437 538 20 -3 21 -9 20 -93 0
-133 -39 -314 -139 -655 -25 -85 -51 -172 -56 -192 -10 -32 -8 -43 10 -80 55
-110 167 -128 248 -40 34 38 83 114 132 207 50 93 59 105 77 105 18 0 18 -74
2 -220 -14 -128 -7 -176 29 -193 56 -25 126 44 265 263 61 96 77 115 98 115
34 0 49 -49 59 -196 9 -131 24 -164 77 -175 44 -8 99 22 200 112 46 41 95 79
109 84 38 15 100 12 142 -5 76 -32 104 18 30 54 -93 45 -212 21 -293 -58 -78
-78 -138 -121 -166 -121 -27 0 -28 2 -28 53 -1 130 -28 251 -66 297 -55 65
-116 31 -207 -115 -48 -78 -108 -162 -155 -215 -40 -45 -47 -29 -33 75 14 99
14 253 0 293 -16 48 -68 54 -109 13 -20 -19 -90 -134 -109 -175 -24 -58 -105
-167 -132 -182 -37 -19 -46 -18 -80 6 -33 24 -47 76 -31 118 41 106 132 448
167 625 39 200 31 332 -22 356 -29 13 -40 13 -78 -4z"/>
<path d="M6725 2718 c4 -120 11 -218 17 -225 23 -28 49 -9 154 113 180 208
178 205 126 226 -76 29 -279 98 -291 98 -11 0 -13 -34 -6 -212z"/>
</g>
</svg>
