<?xml version="1.0" standalone="no"?>
<!DOCTYPE svg PUBLIC "-//W3C//DTD SVG 20010904//EN"
 "http://www.w3.org/TR/2001/REC-SVG-20010904/DTD/svg10.dtd">
<svg version="1.0" xmlns="http://www.w3.org/2000/svg"
 width="106.000000pt" height="90.000000pt" viewBox="0 0 106.000000 90.000000"
 preserveAspectRatio="xMidYMid meet">
<metadata>
Created by potrace 1.15, written by Peter Selinger 2001-2017
</metadata>
<g transform="translate(0.000000,90.000000) scale(0.100000,-0.100000)"
fill="#000000" stroke="none">
<path d="M275 882 c-114 -40 -205 -117 -251 -215 -29 -62 -33 -168 -9 -238 33
-97 127 -186 243 -229 108 -41 268 -36 366 11 l39 18 134 -114 c128 -109 137
-115 179 -115 55 0 84 26 84 74 0 32 -10 43 -127 143 -69 59 -131 111 -136
114 -6 4 -1 19 11 36 35 49 55 128 49 192 -13 148 -115 266 -275 320 -80 27
-233 29 -307 3z m288 -110 c58 -26 123 -85 149 -136 13 -25 20 -60 21 -96 1
-107 -68 -198 -182 -241 -75 -28 -203 -23 -273 10 -240 115 -197 413 69 481
55 14 165 4 216 -18z"/>
<path d="M180 446 c0 -24 98 -104 149 -121 60 -20 176 -17 176 4 0 8 -26 20
-69 32 -39 9 -107 36 -152 58 -89 45 -104 48 -104 27z"/>
</g>
</svg>
